<?xml version="1.0" encoding="UTF-8" standalone="no"?>
<!DOCTYPE svg PUBLIC "-//W3C//DTD SVG 1.1//EN" "http://www.w3.org/Graphics/SVG/1.1/DTD/svg11.dtd">
<svg width="100%" height="100%" viewBox="0 0 450 450" version="1.1" xmlns="http://www.w3.org/2000/svg" xmlns:xlink="http://www.w3.org/1999/xlink" xml:space="preserve" xmlns:serif="http://www.serif.com/" style="fill-rule:evenodd;clip-rule:evenodd;stroke-linejoin:round;stroke-miterlimit:2;">
    <g transform="matrix(1.34281,0,0,1.34637,-118.787,-98.3952)">
        <g>
            <path d="M255.889,187.702L280.769,149.898C304.19,118.159 327.489,110.138 346.757,120.315C360.38,127.511 373.87,146.148 384.858,178.532C394.09,206.43 402.335,232.489 407.982,255.44C413.225,276.75 416.219,295.519 415.976,310.795C415.707,327.691 410.872,339.786 404.282,348.026C397.318,356.735 388.218,361.498 378.876,363.045C372.641,364.078 366.916,364.363 360.311,362.501C355.734,361.211 350.653,358.838 344.668,354.485C336.642,348.647 323.667,333.179 309.822,314.217C290.332,287.524 268.514,253.851 255.908,233.997C243.321,253.848 221.528,287.526 202.057,314.222C188.225,333.186 175.257,348.655 167.23,354.495C161.245,358.847 156.164,361.22 151.587,362.51C144.982,364.372 139.257,364.087 133.022,363.054C123.68,361.508 114.58,356.744 107.616,348.036C101.026,339.796 96.191,327.701 95.922,310.805C95.679,295.528 98.673,276.759 103.916,255.45C109.563,232.499 117.808,206.44 127.07,178.453C138.028,146.157 151.518,127.52 165.141,120.325C184.409,110.148 207.708,118.169 231.129,149.907L255.889,187.702ZM241.291,210.673L211.137,164.582C203.322,153.993 196.054,146.543 188.908,142.854C184.643,140.653 180.596,140.177 176.759,142.204C166.689,147.523 158.684,162.517 150.613,186.301C141.604,213.527 133.535,238.952 128.024,261.35C123.374,280.248 120.527,296.864 120.743,310.412C120.873,318.608 122.416,325.04 125.152,329.83C128.103,334.996 132.463,337.865 137.088,338.631C139.688,339.062 142.08,339.463 144.835,338.686C147.134,338.038 149.597,336.678 152.602,334.492C161.31,328.158 176.092,308.312 191.442,286.413C211.853,257.294 232.729,224.352 241.291,210.673ZM270.488,210.628C279.047,224.283 299.97,257.255 320.42,286.399C335.789,308.301 350.588,328.148 359.296,334.482C362.301,336.668 364.764,338.029 367.063,338.677C369.818,339.453 372.209,339.052 374.81,338.621C379.435,337.856 383.795,334.986 386.746,329.821C389.482,325.031 391.025,318.599 391.155,310.402C391.371,296.855 388.524,280.239 383.874,261.341C378.363,238.943 370.294,213.518 361.314,186.38C353.214,162.507 345.209,147.513 335.139,142.194C331.302,140.168 327.255,140.643 322.99,142.845C315.844,146.534 308.576,153.983 300.761,164.573L270.488,210.628Z"/>
        </g>
    </g>
</svg>
